<svg width="40" height="40" viewBox="0 0 16 17" fill="none" xmlns="http://www.w3.org/2000/svg">
<path d="M9.81557 10.4212C10.3178 9.91901 10.5689 9.31299 10.5689 8.60317C10.5689 7.89335 10.3178 7.28732 9.81557 6.78509C9.31334 6.28285 8.70731 6.03174 7.99749 6.03174C7.28767 6.03174 6.68164 6.28285 6.17941 6.78509C5.67718 7.28732 5.42606 7.89335 5.42606 8.60317C5.42606 9.31299 5.67718 9.91901 6.17941 10.4212C6.68164 10.9235 7.28767 11.1746 7.99749 11.1746C8.70731 11.1746 9.31334 10.9235 9.81557 10.4212ZM10.7999 5.80071C11.57 6.5708 11.9551 7.50495 11.9551 8.60317C11.9551 9.70138 11.57 10.6355 10.7999 11.4056C10.0299 12.1757 9.0957 12.5608 7.99749 12.5608C6.89928 12.5608 5.96512 12.1757 5.19503 11.4056C4.42494 10.6355 4.0399 9.70138 4.0399 8.60317C4.0399 7.50495 4.42494 6.5708 5.19503 5.80071C5.96512 5.03062 6.89928 4.64558 7.99749 4.64558C9.0957 4.64558 10.0299 5.03062 10.7999 5.80071ZM12.7687 3.83196C12.9495 4.01276 13.0399 4.2304 13.0399 4.48486C13.0399 4.73933 12.9495 4.95696 12.7687 5.13776C12.5879 5.31857 12.3703 5.40897 12.1158 5.40897C11.8613 5.40897 11.6437 5.31857 11.4629 5.13776C11.2821 4.95696 11.1917 4.73933 11.1917 4.48486C11.1917 4.2304 11.2821 4.01276 11.4629 3.83196C11.6437 3.65116 11.8613 3.56076 12.1158 3.56076C12.3703 3.56076 12.5879 3.65116 12.7687 3.83196ZM8.76088 2.27504C8.29883 2.27504 8.04436 2.27504 7.99749 2.27504C7.95061 2.27504 7.6928 2.27504 7.22405 2.27504C6.762 2.26834 6.41044 2.26834 6.16936 2.27504C5.92829 2.27504 5.60352 2.28509 5.19503 2.30517C4.79325 2.31857 4.44838 2.35205 4.16044 2.40562C3.87919 2.4525 3.64146 2.51276 3.44727 2.58642C3.11244 2.72035 2.8178 2.91455 2.56334 3.16901C2.30887 3.42348 2.11468 3.71812 1.98075 4.05294C1.90709 4.24714 1.84347 4.48821 1.7899 4.77616C1.74302 5.05741 1.70954 5.40227 1.68945 5.81076C1.67606 6.21254 1.66602 6.53397 1.65932 6.77504C1.65932 7.01611 1.65932 7.37102 1.65932 7.83977C1.66602 8.30183 1.66936 8.55629 1.66936 8.60317C1.66936 8.65004 1.66602 8.90785 1.65932 9.3766C1.65932 9.83866 1.65932 10.1902 1.65932 10.4313C1.66602 10.6724 1.67606 10.9971 1.68945 11.4056C1.70954 11.8074 1.74302 12.1523 1.7899 12.4402C1.84347 12.7215 1.90709 12.9592 1.98075 13.1534C2.11468 13.4882 2.30887 13.7829 2.56334 14.0373C2.8178 14.2918 3.11244 14.486 3.44727 14.6199C3.64146 14.6936 3.87919 14.7572 4.16044 14.8108C4.44838 14.8576 4.79325 14.8911 5.19503 14.9112C5.60352 14.9246 5.92829 14.9346 6.16936 14.9413C6.41044 14.9413 6.762 14.9413 7.22405 14.9413C7.6928 14.9346 7.95061 14.9313 7.99749 14.9313C8.04436 14.9313 8.29883 14.9346 8.76088 14.9413C9.22963 14.9413 9.58454 14.9413 9.82561 14.9413C10.0667 14.9346 10.3881 14.9246 10.7899 14.9112C11.1984 14.8911 11.5432 14.8576 11.8245 14.8108C12.1124 14.7572 12.3535 14.6936 12.5477 14.6199C12.8825 14.486 13.1772 14.2918 13.4316 14.0373C13.6861 13.7829 13.8803 13.4882 14.0142 13.1534C14.0879 12.9592 14.1482 12.7215 14.195 12.4402C14.2486 12.1523 14.2821 11.8074 14.2955 11.4056C14.3156 10.9971 14.3256 10.6724 14.3256 10.4313C14.3323 10.1902 14.3323 9.83866 14.3256 9.3766C14.3256 8.90785 14.3256 8.65004 14.3256 8.60317C14.3256 8.55629 14.3256 8.30183 14.3256 7.83977C14.3323 7.37102 14.3323 7.01611 14.3256 6.77504C14.3256 6.53397 14.3156 6.21254 14.2955 5.81076C14.2821 5.40227 14.2486 5.05741 14.195 4.77616C14.1482 4.48821 14.0879 4.24714 14.0142 4.05294C13.8803 3.71812 13.6861 3.42348 13.4316 3.16901C13.1772 2.91455 12.8825 2.72035 12.5477 2.58642C12.3535 2.51276 12.1124 2.4525 11.8245 2.40562C11.5432 2.35205 11.1984 2.31857 10.7899 2.30517C10.3881 2.28509 10.0667 2.27504 9.82561 2.27504C9.58454 2.26834 9.22963 2.26834 8.76088 2.27504ZM15.6616 5.41901C15.695 6.0083 15.7118 7.06968 15.7118 8.60317C15.7118 10.1366 15.695 11.198 15.6616 11.7873C15.5946 13.1802 15.1794 14.2583 14.416 15.0217C13.6526 15.7851 12.5745 16.2003 11.1816 16.2672C10.5924 16.3007 9.53097 16.3175 7.99749 16.3175C6.46401 16.3175 5.40262 16.3007 4.81334 16.2672C3.42048 16.2003 2.34235 15.7851 1.57896 15.0217C0.815569 14.2583 0.400391 13.1802 0.333426 11.7873C0.299944 11.198 0.283203 10.1366 0.283203 8.60317C0.283203 7.06968 0.299944 6.0083 0.333426 5.41901C0.400391 4.02616 0.815569 2.94803 1.57896 2.18464C2.34235 1.42125 3.42048 1.00607 4.81334 0.939104C5.40262 0.905622 6.46401 0.88888 7.99749 0.88888C9.53097 0.88888 10.5924 0.905622 11.1816 0.939104C12.5745 1.00607 13.6526 1.42125 14.416 2.18464C15.1794 2.94803 15.5946 4.02616 15.6616 5.41901Z" fill="white"/>
</svg>
